<svg xmlns="http://www.w3.org/2000/svg" viewBox="0 0 150 138" fill="none" role="img">
<defs><filter id="fx" x="-15%" y="-15%" width="130%" height="130%" color-interpolation-filters="sRGB">
<feTurbulence type="fractalNoise" baseFrequency="0.028 0.05" numOctaves="3" seed="14" result="wob"/>
<feDisplacementMap in="SourceGraphic" in2="wob" scale="5" xChannelSelector="R" yChannelSelector="G" result="d1"/>
<feTurbulence type="fractalNoise" baseFrequency="0.30" numOctaves="2" seed="21" result="grain"/>
<feColorMatrix in="grain" type="matrix" values="0 0 0 0 1 0 0 0 0 1 0 0 0 0 1 0 0 0 3.2 -1.15" result="spek"/>
<feComposite in="d1" in2="spek" operator="in"/>
</filter></defs>
<path d="M75 45.5L73 44.5L74.4 43.7L75.5 41.8L77.4 40.2L79.8 37.6L78.5 33.1L82.3 30.7L84.3 27.1L87.9 24.2L92 22.7L95.4 17.8L100.6 17.7L105.7 17.9L110.9 16.8L115.7 19.1L122 18.5L126.5 21.5L129.9 26.1L132.4 30.9L135.1 35L138.5 39.3L141.6 44.3L142.2 49.6L141.8 55.5L137.9 60.1L137.4 66.1L134.6 71.6L128.5 74.5L126.2 81.4L119.4 83.8L114.4 88.4L110.8 94.7L106.8 100.2L101.4 104.1L94.7 105.9L90.2 110.3L89.6 117L84.9 119.7L80 121.3L77.3 124.9L77.7 128.5L76.8 131.3L77.1 133.3L76.2 134.7L73.4 134.9L72.9 136L74.3 135.2L74.9 134.5L74.4 132.8L75.5 130.1L72.3 128.5L69.8 126.7L66.8 123.7L66.5 118.5L62.5 115L59.4 110.6L55.2 106L47.8 105.1L43.8 99.6L39.1 94.7L33 91.3L28.6 85.9L25.7 79.6L18.9 76.6L17 70.5L11.3 66.3L9.5 61L8.9 54.9L10.6 49.6L11.3 44.8L9.9 38.8L13.8 34.7L17.3 30.7L19.9 25.8L24.8 23.5L28.8 19.1L33.7 17L39.3 15L44.2 19.2L48.6 19.7L54 19.3L57.3 22.9L63.2 22.8L66.2 26.6L68.1 30.4L71.1 33.4L74.1 35.8L75.9 39.1L72.5 42.3L72.8 44.2L75.2 44.7L74.9 45.6L76.5 48.4L79 50.5" fill="none" stroke="#d88e86" stroke-width="6" stroke-linecap="round" stroke-linejoin="round" opacity="0.92" filter="url(#fx)"/><path d="M75 45.5L72 44.4L75 43.9L76.6 42L75.2 39.2L75.4 35.6L81.5 35.4L82.6 31L83 25.4L88.1 24.4L92.3 23.4L95 16.9L100.6 18.5L105.6 16L110.7 17.7L115.2 20.9L121.6 19.2L126.8 21L129.1 26.7L133.3 30.2L136.6 34.4L141.2 38.4L143.2 44.3L140.1 49.6L137.1 53.9L139.6 60.7L139.1 67.2L130.7 69.1L129.3 75.2L126.7 81.8L120.2 84.7L116.2 90.4L109.1 92.6L104.2 97.1L99.2 101.7L96.3 107.6L93.2 113.1L86.3 113.9L85.2 119.9L79.4 120.8L77.2 124.8L78.6 128.9L73.9 130.4L77.7 133.5L72.8 134.2L77 135.4L73.6 135.9L75.3 135.1L72.1 135.4L72.4 133.4L74.4 130.8L73 128.1L70.8 125.9L66 124.2L64.3 120.6L63.7 113.9L59 111L53.7 107.7L49.2 103.5L42.4 101.2L40.8 92.8L32.1 92.3L29.8 84.8L22.7 82.4L21.8 74.7L15.9 71.2L10.6 66.5L13.2 59.7L8.4 54.9L8.7 49.6L11.3 44.9L14 40.2L14.4 35.2L16.9 30.4L21.4 28L25.7 24.9L28.4 17.5L34.8 20.9L39.1 20.3L44.2 19.9L49.6 17.3L53.3 21.1L56.9 23.4L62.8 23.3L66.7 26.3L66.7 31.5L69.5 34.2L70.6 37.4L75.3 39.3L76.5 41.2L77.5 43.7L73.5 44.9L74.1 46.2L78.8 46.5L79 50.5" fill="none" stroke="#d88e86" stroke-width="3.3" stroke-linecap="round" stroke-linejoin="round" opacity="0.45" filter="url(#fx)"/>
</svg>
